<svg xmlns="http://www.w3.org/2000/svg" width="16" height="16" fill="currentColor" class="bi bi-instagram" viewBox="0 0 16 16">
  <path d="M8 0C5.829 0 5.556.01 4.703.048 3.85.088 3.269.222 2.76.42a3.9 3.9 0 0 0-1.417.923A3.9 3.9 0 0 0 .42 2.76C.222 3.268.087 3.85.048 4.703.01 5.556 0 5.829 0 8s.01 2.444.048 3.297c.04.852.174 1.433.372 1.942.205.526.478.972.923 1.417.444.445.89.719 1.416.923.51.198 1.09.333 1.942.372C5.556 15.99 5.829 16 8 16s2.444-.01 3.297-.048c.852-.04 1.433-.174 1.942-.372.526-.205.972-.478 1.417-.923.445-.444.718-.891.923-1.417.198-.51.333-1.09.372-1.942C15.99 10.444 16 10.171 16 8s-.01-2.444-.048-3.297c-.04-.852-.174-1.433-.372-1.942a3.9 3.9 0 0 0-.923-1.417A3.9 3.9 0 0 0 13.24.42c-.51-.198-1.09-.333-1.942-.372C10.444.01 10.171 0 8 0zm0 1.442c2.136 0 2.389.007 3.232.046.78.035 1.204.166 1.486.275.373.145.64.319.92.599s.453.546.598.92c.11.281.24.705.275 1.486.039.843.047 1.096.047 3.232s-.008 2.389-.047 3.232c-.035.78-.166 1.204-.275 1.486a2.5 2.5 0 0 1-.598.92 2.5 2.5 0 0 1-.92.598c-.28.11-.704.24-1.486.275-.843.038-1.096.047-3.232.047s-2.389-.009-3.232-.047c-.78-.036-1.204-.166-1.486-.275a2.5 2.5 0 0 1-.92-.598 2.5 2.5 0 0 1-.598-.92c-.11-.282-.24-.705-.275-1.486-.038-.843-.046-1.096-.046-3.232s.008-2.389.046-3.232c.036-.78.166-1.204.275-1.486.145-.373.319-.64.599-.92s.546-.453.92-.598c.282-.11.705-.24 1.486-.275.843-.039 1.096-.046 3.232-.046zM8 4.865a3.135 3.135 0 1 0 0 6.27 3.135 3.135 0 0 0 0-6.27zM8 12a4 4 0 1 1 0-8 4 4 0 0 1 0 8zm6.406-11.845a1.2 1.2 0 1 0 0-2.4 1.2 1.2 0 0 0 0 2.4z"/>
</svg>